<svg xmlns="http://www.w3.org/2000/svg" viewBox="0 0 538.28 137.7"><defs><style>.cls-1{fill:#d73738;}.cls-2{fill:#2e2d2c;}</style></defs><g id="Capa_2" data-name="Capa 2"><g id="Capa_1-2" data-name="Capa 1"><path class="cls-1" d="M119.1,59.74l-10.87-8.49V11.8A12.06,12.06,0,0,0,95.94,0H27.7A12.07,12.07,0,0,0,15.4,11.8V51.25L4.53,59.74A11.51,11.51,0,0,0,4.42,78L15,86.42,15.36,126A12.09,12.09,0,0,0,27.65,137.7H95.94a12.06,12.06,0,0,0,12.29-11.8V86.74l11-8.78a11.52,11.52,0,0,0-.12-18.22ZM98.76,61.63l9.34,7.29-9.45,7.55a11.59,11.59,0,0,0-4.42,9.07v38.15H29.34L29,85.1a11.59,11.59,0,0,0-4.42-9l-9-7.22,9.33-7.29a11.58,11.58,0,0,0,4.53-9.15V14H94.23V52.48A11.58,11.58,0,0,0,98.76,61.63Z"/><path class="cls-2" d="M151.4,21.47A9.05,9.05,0,0,0,144.84,24a8.89,8.89,0,0,0-2.6,6.64,9.25,9.25,0,0,0,15.66,6.58,8.81,8.81,0,0,0,2.66-6.58,8.86,8.86,0,0,0-9.16-9.16Z"/><rect class="cls-2" x="144.1" y="47.19" width="14.37" height="65.43" rx="2.48"/><path class="cls-2" d="M203,46.32q-8.36,0-13.47,4.8V49.67A2.32,2.32,0,0,0,187,47.19h-9.4a2.32,2.32,0,0,0-2.48,2.48v60.46a2.33,2.33,0,0,0,2.48,2.49H187a2.33,2.33,0,0,0,2.48-2.49V70.32a12.07,12.07,0,0,1,2.71-8.26,9,9,0,0,1,7.17-3A8.6,8.6,0,0,1,206.28,62c1.73,2,2.6,4.74,2.6,8.2v39.94a2.34,2.34,0,0,0,2.49,2.49h9.39a2.34,2.34,0,0,0,2.49-2.49V68.46c0-6.8-1.8-12.24-5.33-16.16S209.32,46.32,203,46.32Z"/><path class="cls-2" d="M254.82,61.46A9.52,9.52,0,0,1,261.69,59a10.24,10.24,0,0,1,7,2.36,9.31,9.31,0,0,1,3.3,5.75l.4,2.12A2.24,2.24,0,0,0,274.55,71l9.76-.77a2.59,2.59,0,0,0,2.23-2.79l-.5-3a20.23,20.23,0,0,0-8-13.15,26,26,0,0,0-16.22-5.08c-6.53,0-12,1.8-16.37,5.35a22.44,22.44,0,0,0-8,14.27,103.3,103.3,0,0,0-.88,13.9,94.25,94.25,0,0,0,.88,14.16,22.53,22.53,0,0,0,7.92,14.44c4.29,3.5,9.82,5.28,16.43,5.28s12.07-1.75,16.47-5.21A19.92,19.92,0,0,0,286,94.77l.39-2.32a2.37,2.37,0,0,0-2.4-2.61h0l-9.24-.61a2.54,2.54,0,0,0-1.87.5,2.42,2.42,0,0,0-.85,1.73L272,92.67a8.84,8.84,0,0,1-3.16,5.82,10.39,10.39,0,0,1-7.1,2.36,9.44,9.44,0,0,1-6.81-2.45,10.75,10.75,0,0,1-3.21-6.76,78.71,78.71,0,0,1-.73-11.8,99.46,99.46,0,0,1,.61-11.58A10.81,10.81,0,0,1,254.82,61.46Z"/><path class="cls-2" d="M339.51,51.55C335.17,48,329.63,46.2,323,46.2S310.73,48,306.4,51.55a22,22,0,0,0-7.86,14.36,85.58,85.58,0,0,0-1,13.93,90,90,0,0,0,1,14,21.9,21.9,0,0,0,7.87,14.46c4.33,3.51,9.92,5.28,16.61,5.28s12.27-1.78,16.56-5.28a21.94,21.94,0,0,0,7.79-14.41,80.06,80.06,0,0,0,1-14.07,80.36,80.36,0,0,0-1-14A22,22,0,0,0,339.51,51.55Zm-27,16.74a11.09,11.09,0,0,1,3.5-6.81A9.81,9.81,0,0,1,322.89,59a10,10,0,0,1,7,2.53,11,11,0,0,1,3.48,6.76,100.2,100.2,0,0,1,.62,11.6,106.41,106.41,0,0,1-.61,11.67,11.11,11.11,0,0,1-3.49,6.81h0a9.85,9.85,0,0,1-6.9,2.53,10,10,0,0,1-7-2.53,11,11,0,0,1-3.49-6.75A110.07,110.07,0,0,1,312,79.84,109.84,109.84,0,0,1,312.5,68.29Z"/><path class="cls-2" d="M408.32,23.57h-9.39a2.34,2.34,0,0,0-2.49,2.49V51a14.18,14.18,0,0,0-4.13-3.1,19.11,19.11,0,0,0-8.59-1.74c-11.59,0-18.78,6.57-21.38,19.55a68.25,68.25,0,0,0-1.26,14.34,64.09,64.09,0,0,0,1.52,14.38c1.54,6.4,4,11.22,7.28,14.34s7.81,4.79,13.22,4.79c5.66,0,10.12-1.7,13.34-5.15v1.68a2.34,2.34,0,0,0,2.49,2.49h9.39a2.34,2.34,0,0,0,2.49-2.49V26.06A2.34,2.34,0,0,0,408.32,23.57Zm-22,77.28c-4.62,0-7.63-2.51-9.21-7.68-1-3.08-1.54-7.56-1.54-13.33a42.32,42.32,0,0,1,1.91-13.92c1.71-4.69,4.64-7,9-7a7.45,7.45,0,0,1,5.17,1.73,11.21,11.21,0,0,1,3.05,5.49c1.1,3.06,1.66,7.66,1.66,13.67,0,5.86-.52,10.43-1.56,13.61C393.28,98.43,390.52,100.85,386.32,100.85Z"/><path class="cls-2" d="M449.49,46.2c-6.51,0-12,1.68-16.39,5a18.21,18.21,0,0,0-7.44,13.12,2,2,0,0,0,.66,2.06,2.49,2.49,0,0,0,1.57.6h0l10.22.62a2.4,2.4,0,0,0,2.59-2.14,7.3,7.3,0,0,1,2.81-4.73,9.53,9.53,0,0,1,6-1.79c3.12,0,5.43.88,7.05,2.68S459,66,459,69.21v2.7h-9.63c-7.84,0-14.15,1.86-18.77,5.53s-7.08,9.24-7.08,16.37c0,6.89,2.08,12,6.17,15.15a23.14,23.14,0,0,0,14.49,4.64c6.07,0,11.05-1.63,14.82-4.85v1.38a2.34,2.34,0,0,0,2.49,2.49h9.39a2.33,2.33,0,0,0,2.49-2.49V68.22c0-6.52-2.21-11.88-6.58-15.94S456.63,46.2,449.49,46.2Zm6,51.94a13.9,13.9,0,0,1-8.69,2.83,9.57,9.57,0,0,1-6.37-2c-1.53-1.28-2.28-3.21-2.28-5.9a8,8,0,0,1,3.15-6.91c2.2-1.64,5.21-2.48,9-2.48H459v7.16A8.66,8.66,0,0,1,455.47,98.14Z"/><path class="cls-2" d="M536.77,65.34c-1.46-6.4-3.86-11.23-7.16-14.35s-7.85-4.79-13.35-4.79-10.08,1.7-13.22,5V49.67a2.32,2.32,0,0,0-2.48-2.48h-9.4a2.32,2.32,0,0,0-2.48,2.48v84.08a2.32,2.32,0,0,0,2.48,2.48h9.4a2.32,2.32,0,0,0,2.48-2.48v-25c3.08,3.19,7.35,4.8,12.73,4.8,11.51,0,18.66-6.57,21.25-19.54a73.7,73.7,0,0,0,1.26-14.34A64.5,64.5,0,0,0,536.77,65.34ZM513.17,59a8.32,8.32,0,0,1,5.73,1.86,12.77,12.77,0,0,1,3.46,5.79c.95,3.16,1.43,7.66,1.43,13.36,0,5.93-.6,10.61-1.77,13.9-1.79,4.7-4.72,7-9,7a7.41,7.41,0,0,1-5.17-1.73,11.91,11.91,0,0,1-3.17-5.45c-1-3.15-1.54-7.76-1.54-13.71,0-5.78.48-10.32,1.43-13.48a12.5,12.5,0,0,1,3.23-5.69A7.51,7.51,0,0,1,513.17,59Z"/></g></g></svg>